<?xml version="1.0" encoding="UTF-8" standalone="no"?> <svg width="64" height="64" viewBox="0 0 64 64" fill="none" xmlns="http://www.w3.org/2000/svg">
<path d="M55 7H5V49H55V7Z" fill="#D0D8DA"/>
<path d="M55 7H5V49H55V29H34C28.9609 29 24.1282 26.9982 20.565 23.435C17.0018 19.8718 15 15.0391 15 10H55V7Z" fill="#93999A"/>
<path d="M35 25H25V35H35V25Z" fill="#57B7EB"/>
<path d="M20 25H10V35H20V25Z" fill="#4891D3"/>
<path d="M15 39H10V49H15V39Z" fill="#57B7EB"/>
<path d="M50 25H40V35H50V25Z" fill="#57B7EB"/>
<path d="M35 11H25V21H35V11Z" fill="#57B7EB"/>
<path d="M20 11H10V21H20V11Z" fill="#57B7EB"/>
<path d="M50 11H40V21H50V11Z" fill="#57B7EB"/>
<path d="M57 3H3V7H57V3Z" fill="#FCBC04"/>
<path d="M25 25L35 35H25V25Z" fill="#4891D3"/>
<path d="M10 25L20 35H10V25Z" fill="#2D72BC"/>
<path d="M15 39H10V49H15V39Z" fill="#E59730"/>
<path d="M40 25L50 35H40V25Z" fill="#4891D3"/>
<path d="M25 11L35 21H25V11Z" fill="#4891D3"/>
<path d="M10 11L20 21H10V11Z" fill="#4891D3"/>
<path d="M40 11L50 21H40V11Z" fill="#4891D3"/>
<path d="M9 3H57V5H11C10.4696 5 9.96086 4.78929 9.58579 4.41421C9.21071 4.03914 9 3.53043 9 3V3Z" fill="#F9E109"/>
<path d="M35 35V29H34C30.8583 29.004 27.7652 28.2252 25 26.734V35H35Z" fill="#4891D3"/>
<path d="M50 29H40V35H50V29Z" fill="#4891D3"/>
<path d="M10 21H18.527C16.438 18.0665 15.2316 14.5967 15.05 11H10V21Z" fill="#4891D3"/>
<path d="M25 26.734V35H35L28.041 28.041C26.9912 27.6949 25.9736 27.2575 25 26.734V26.734Z" fill="#2D72BC"/>
<path d="M40 29V35H50L44 29H40Z" fill="#2D72BC"/>
<path d="M10 11V21H18.527C17.7706 19.9384 17.1268 18.8009 16.606 17.606L10 11Z" fill="#2D72BC"/>
<path d="M55 28H5C4.73478 28 4.48043 28.1054 4.29289 28.2929C4.10536 28.4804 4 28.7348 4 29V35C4 35.2652 4.10536 35.5196 4.29289 35.7071C4.48043 35.8946 4.73478 36 5 36H55C55.2652 36 55.5196 35.8946 55.7071 35.7071C55.8946 35.5196 56 35.2652 56 35V29C56 28.7348 55.8946 28.4804 55.7071 28.2929C55.5196 28.1054 55.2652 28 55 28ZM16 30H19V34H16V30ZM14 34H11V30H14V34ZM21 30H24V34H21V30ZM26 30H29V34H26V30ZM31 30H34V34H31V30ZM36 30H39V34H36V30ZM41 30H44V34H41V30ZM46 30H49V34H46V30ZM6 30H9V34H6V30ZM54 34H51V30H54V34Z" fill="#E59730"/>
<path d="M55 14H5C4.73478 14 4.48043 14.1054 4.29289 14.2929C4.10536 14.4804 4 14.7348 4 15V21C4 21.2652 4.10536 21.5196 4.29289 21.7071C4.48043 21.8946 4.73478 22 5 22H55C55.2652 22 55.5196 21.8946 55.7071 21.7071C55.8946 21.5196 56 21.2652 56 21V15C56 14.7348 55.8946 14.4804 55.7071 14.2929C55.5196 14.1054 55.2652 14 55 14ZM16 16H19V20H16V16ZM14 20H11V16H14V20ZM21 16H24V20H21V16ZM26 16H29V20H26V16ZM31 16H34V20H31V16ZM36 16H39V20H36V16ZM41 16H44V20H41V16ZM46 16H49V20H46V16ZM6 16H9V20H6V16ZM54 20H51V16H54V20Z" fill="#E59730"/>
<path d="M56 22H4C3.73478 22 3.48043 21.8946 3.29289 21.7071C3.10536 21.5196 3 21.2652 3 21C3 20.7348 3.10536 20.4804 3.29289 20.2929C3.48043 20.1054 3.73478 20 4 20H56C56.2652 20 56.5196 20.1054 56.7071 20.2929C56.8946 20.4804 57 20.7348 57 21C57 21.2652 56.8946 21.5196 56.7071 21.7071C56.5196 21.8946 56.2652 22 56 22Z" fill="#FCBC04"/>
<path d="M56 36H4C3.73478 36 3.48043 35.8946 3.29289 35.7071C3.10536 35.5196 3 35.2652 3 35C3 34.7348 3.10536 34.4804 3.29289 34.2929C3.48043 34.1054 3.73478 34 4 34H56C56.2652 34 56.5196 34.1054 56.7071 34.2929C56.8946 34.4804 57 34.7348 57 35C57 35.2652 56.8946 35.5196 56.7071 35.7071C56.5196 35.8946 56.2652 36 56 36Z" fill="#FCBC04"/>
<path d="M61 35H15V55H61V35Z" fill="#F9E109"/>
<path d="M24 55H20V61H24V55Z" fill="#E59730"/>
<path d="M56 55H52V61H56V55Z" fill="#E59730"/>
<path d="M20 41V35H15V55H61V51H30C27.3478 51 24.8043 49.9464 22.9289 48.0711C21.0536 46.1957 20 43.6522 20 41V41Z" fill="#FCBC04"/>
<path d="M24 57V61H22V59C22 58.4696 22.2107 57.9609 22.5858 57.5858C22.9609 57.2107 23.4696 57 24 57V57Z" fill="#FCBC04"/>
<path d="M56 57V61H54V59C54 58.4696 54.2107 57.9609 54.5858 57.5858C54.9609 57.2107 55.4696 57 56 57Z" fill="#FCBC04"/>
<path d="M27 42C27 40.9391 26.5786 39.9217 25.8284 39.1716C25.0783 38.4214 24.0609 38 23 38H20C19.7348 38 19.4804 38.1054 19.2929 38.2929C19.1054 38.4804 19 38.7348 19 39V51C19 51.2652 19.1054 51.5196 19.2929 51.7071C19.4804 51.8946 19.7348 52 20 52C20.2652 52 20.5196 51.8946 20.7071 51.7071C20.8946 51.5196 21 51.2652 21 51V46H23C23.5304 46 24.0391 46.2107 24.4142 46.5858C24.7893 46.9609 25 47.4696 25 48V51C25 51.2652 25.1054 51.5196 25.2929 51.7071C25.4804 51.8946 25.7348 52 26 52C26.2652 52 26.5196 51.8946 26.7071 51.7071C26.8946 51.5196 27 51.2652 27 51V48C26.9982 47.4301 26.8738 46.8673 26.6354 46.3497C26.3969 45.832 26.0499 45.3718 25.618 45C26.0499 44.6282 26.3969 44.168 26.6354 43.6503C26.8738 43.1327 26.9982 42.5699 27 42V42ZM21 44V40H23C23.5304 40 24.0391 40.2107 24.4142 40.5858C24.7893 40.9609 25 41.4696 25 42C25 42.5304 24.7893 43.0391 24.4142 43.4142C24.0391 43.7893 23.5304 44 23 44H21Z" fill="#2D72BC"/>
<path d="M36 40C36.2652 40 36.5196 39.8946 36.7071 39.7071C36.8946 39.5196 37 39.2652 37 39C37 38.7348 36.8946 38.4804 36.7071 38.2929C36.5196 38.1054 36.2652 38 36 38H30C29.7348 38 29.4804 38.1054 29.2929 38.2929C29.1054 38.4804 29 38.7348 29 39V51C29 51.2652 29.1054 51.5196 29.2929 51.7071C29.4804 51.8946 29.7348 52 30 52H36C36.2652 52 36.5196 51.8946 36.7071 51.7071C36.8946 51.5196 37 51.2652 37 51C37 50.7348 36.8946 50.4804 36.7071 50.2929C36.5196 50.1054 36.2652 50 36 50H31V46H36C36.2652 46 36.5196 45.8946 36.7071 45.7071C36.8946 45.5196 37 45.2652 37 45C37 44.7348 36.8946 44.4804 36.7071 44.2929C36.5196 44.1054 36.2652 44 36 44H31V40H36Z" fill="#2D72BC"/>
<path d="M46 38C45.7348 38 45.4804 38.1054 45.2929 38.2929C45.1054 38.4804 45 38.7348 45 39V46.764L40.9 38.553C40.8009 38.3484 40.6351 38.1837 40.4299 38.0859C40.2246 37.9882 39.9922 37.9633 39.7709 38.0153C39.5496 38.0674 39.3527 38.1933 39.2126 38.3723C39.0724 38.5513 38.9974 38.7727 39 39V51C39 51.2652 39.1054 51.5196 39.2929 51.7071C39.4804 51.8947 39.7348 52 40 52C40.2652 52 40.5196 51.8947 40.7071 51.7071C40.8946 51.5196 41 51.2652 41 51V43.236L45.1 51.447C45.1991 51.6516 45.3649 51.8164 45.5701 51.9141C45.7754 52.0118 46.0078 52.0367 46.2291 51.9847C46.4504 51.9326 46.6473 51.8067 46.7874 51.6277C46.9276 51.4487 47.0026 51.2273 47 51V39C47 38.7348 46.8946 38.4804 46.7071 38.2929C46.5196 38.1054 46.2652 38 46 38Z" fill="#2D72BC"/>
<path d="M56 38H50C49.7348 38 49.4804 38.1054 49.2929 38.2929C49.1054 38.4804 49 38.7348 49 39C49 39.2652 49.1054 39.5196 49.2929 39.7071C49.4804 39.8946 49.7348 40 50 40H52V51C52 51.2652 52.1054 51.5196 52.2929 51.7071C52.4804 51.8946 52.7348 52 53 52C53.2652 52 53.5196 51.8946 53.7071 51.7071C53.8946 51.5196 54 51.2652 54 51V40H56C56.2652 40 56.5196 39.8946 56.7071 39.7071C56.8946 39.5196 57 39.2652 57 39C57 38.7348 56.8946 38.4804 56.7071 38.2929C56.5196 38.1054 56.2652 38 56 38Z" fill="#2D72BC"/>
<path d="M21.349 46H23C23.5304 46 24.0391 46.2107 24.4142 46.5858C24.7893 46.9609 25 47.4696 25 48V49.651C25.6319 50.0203 26.3026 50.3188 27 50.541V48C26.9982 47.4301 26.8738 46.8673 26.6354 46.3497C26.3969 45.8321 26.0499 45.3718 25.618 45C26.2349 44.4683 26.674 43.7603 26.8761 42.9714C27.0782 42.1824 27.0336 41.3505 26.7483 40.5877C26.463 39.8249 25.9507 39.1679 25.2805 38.7052C24.6103 38.2425 23.8144 37.9964 23 38H20V41C19.9998 42.7566 20.4653 44.4819 21.349 46V46ZM21 40H23C23.5304 40 24.0391 40.2107 24.4142 40.5858C24.7893 40.9609 25 41.4696 25 42C25 42.5304 24.7893 43.0392 24.4142 43.4142C24.0391 43.7893 23.5304 44 23 44H21V40Z" fill="#4891D3"/>
<path d="M37 51C37 50.7348 36.8946 50.4804 36.7071 50.2929C36.5196 50.1054 36.2652 50 36 50H31V46H36C36.2652 46 36.5196 45.8946 36.7071 45.7071C36.8946 45.5196 37 45.2652 37 45C37 44.7348 36.8946 44.4804 36.7071 44.2929C36.5196 44.1054 36.2652 44 36 44H31V40H36C36.2652 40 36.5196 39.8946 36.7071 39.7071C36.8946 39.5196 37 39.2652 37 39C37 38.7348 36.8946 38.4804 36.7071 38.2929C36.5196 38.1054 36.2652 38 36 38H30C29.7348 38 29.4804 38.1054 29.2929 38.2929C29.1054 38.4804 29 38.7348 29 39V50.95C29.329 50.982 29.662 51 30 51H37Z" fill="#4891D3"/>
<path d="M41 43.236L44.882 51H47V39C47 38.7348 46.8946 38.4804 46.7071 38.2929C46.5196 38.1054 46.2652 38 46 38C45.7348 38 45.4804 38.1054 45.2929 38.2929C45.1054 38.4804 45 38.7348 45 39V46.764L40.9 38.553C40.8009 38.3484 40.6351 38.1837 40.4299 38.0859C40.2246 37.9882 39.9922 37.9633 39.7709 38.0153C39.5496 38.0674 39.3527 38.1933 39.2126 38.3723C39.0724 38.5513 38.9974 38.7727 39 39V51H41V43.236Z" fill="#4891D3"/>
<path d="M54 40H56C56.2652 40 56.5196 39.8946 56.7071 39.7071C56.8946 39.5196 57 39.2652 57 39C57 38.7348 56.8946 38.4804 56.7071 38.2929C56.5196 38.1054 56.2652 38 56 38H50C49.7348 38 49.4804 38.1054 49.2929 38.2929C49.1054 38.4804 49 38.7348 49 39C49 39.2652 49.1054 39.5196 49.2929 39.7071C49.4804 39.8946 49.7348 40 50 40H52V51H54V40Z" fill="#4891D3"/>
</svg>
